<svg xmlns="http://www.w3.org/2000/svg" viewBox="0 0 400 400" width="400" height="400">
  <!-- Escher: Tessellation - interlocking shapes that morph from schema to data -->
  <rect width="400" height="400" rx="20" fill="#0F0B1E" />
  <!-- Row 1: Rectangles (schema/entities) -->
  <rect x="50" y="50" width="55" height="35" rx="4" fill="none" stroke="#F472B6" stroke-width="1.5" opacity="0.7" />
  <rect x="115" y="50" width="55" height="35" rx="4" fill="none" stroke="#F472B6" stroke-width="1.5" opacity="0.65" />
  <rect x="180" y="50" width="55" height="35" rx="4" fill="none" stroke="#F472B6" stroke-width="1.5" opacity="0.6" />
  <rect x="245" y="50" width="55" height="35" rx="4" fill="none" stroke="#E879F9" stroke-width="1.5" opacity="0.5" />
  <rect x="310" y="50" width="55" height="35" rx="4" fill="none" stroke="#E879F9" stroke-width="1.5" opacity="0.4" />
  <!-- Row 2: Rounded rectangles (transitional) -->
  <rect x="50" y="105" width="55" height="35" rx="10" fill="none" stroke="#D946EF" stroke-width="1.5" opacity="0.6" />
  <rect x="115" y="105" width="55" height="35" rx="10" fill="none" stroke="#D946EF" stroke-width="1.5" opacity="0.55" />
  <rect x="180" y="105" width="55" height="35" rx="10" fill="none" stroke="#D946EF" stroke-width="1.5" opacity="0.5" />
  <rect x="245" y="105" width="55" height="35" rx="12" fill="none" stroke="#C084FC" stroke-width="1.5" opacity="0.45" />
  <rect x="310" y="105" width="55" height="35" rx="14" fill="none" stroke="#C084FC" stroke-width="1.5" opacity="0.35" />
  <!-- Row 3: More rounded (morphing into ovals) -->
  <rect x="50" y="160" width="55" height="35" rx="16" fill="none" stroke="#A855F7" stroke-width="1.5" opacity="0.55" />
  <ellipse cx="142" cy="177" rx="27" ry="17" fill="none" stroke="#A855F7" stroke-width="1.5" opacity="0.5" />
  <ellipse cx="207" cy="177" rx="27" ry="17" fill="none" stroke="#A855F7" stroke-width="1.5" opacity="0.45" />
  <ellipse cx="272" cy="177" rx="27" ry="17" fill="none" stroke="#9333EA" stroke-width="1.5" opacity="0.4" />
  <ellipse cx="337" cy="177" rx="27" ry="17" fill="none" stroke="#9333EA" stroke-width="1.5" opacity="0.3" />
  <!-- Row 4: Circles (data instances) -->
  <circle cx="77" cy="232" r="17" fill="none" stroke="#7C3AED" stroke-width="1.5" opacity="0.5" />
  <circle cx="142" cy="232" r="17" fill="none" stroke="#7C3AED" stroke-width="1.5" opacity="0.45" />
  <circle cx="207" cy="232" r="17" fill="none" stroke="#6D28D9" stroke-width="1.5" opacity="0.4" />
  <circle cx="272" cy="232" r="17" fill="none" stroke="#6D28D9" stroke-width="1.5" opacity="0.35" />
  <circle cx="337" cy="232" r="17" fill="none" stroke="#5B21B6" stroke-width="1.5" opacity="0.25" />
  <!-- Row 5: Circles with inner dots (filled data) -->
  <circle cx="77" cy="287" r="17" fill="none" stroke="#5B21B6" stroke-width="1.5" opacity="0.4" />
  <circle cx="77" cy="287" r="5" fill="#5B21B6" opacity="0.3" />
  <circle cx="142" cy="287" r="17" fill="none" stroke="#5B21B6" stroke-width="1.5" opacity="0.35" />
  <circle cx="142" cy="287" r="5" fill="#5B21B6" opacity="0.25" />
  <circle cx="207" cy="287" r="17" fill="none" stroke="#4C1D95" stroke-width="1.5" opacity="0.3" />
  <circle cx="207" cy="287" r="5" fill="#4C1D95" opacity="0.2" />
  <circle cx="272" cy="287" r="17" fill="none" stroke="#4C1D95" stroke-width="1.5" opacity="0.25" />
  <circle cx="272" cy="287" r="5" fill="#4C1D95" opacity="0.15" />
  <circle cx="337" cy="287" r="17" fill="none" stroke="#3B0764" stroke-width="1.5" opacity="0.18" />
  <circle cx="337" cy="287" r="5" fill="#3B0764" opacity="0.1" />
  <!-- Row 6: Filled circles dissolving -->
  <circle cx="77" cy="342" r="14" fill="#4C1D95" opacity="0.25" />
  <circle cx="142" cy="342" r="12" fill="#4C1D95" opacity="0.2" />
  <circle cx="207" cy="342" r="10" fill="#3B0764" opacity="0.15" />
  <circle cx="272" cy="342" r="8" fill="#3B0764" opacity="0.1" />
  <circle cx="337" cy="342" r="6" fill="#3B0764" opacity="0.06" />
</svg>
