<svg xmlns="http://www.w3.org/2000/svg" viewBox="0 0 400 400" width="400" height="400">
  <defs>
    <linearGradient id="cb1" x1="0%" y1="0%" x2="100%" y2="100%">
      <stop offset="0%" style="stop-color:#F59E0B;stop-opacity:1" />
      <stop offset="100%" style="stop-color:#EF4444;stop-opacity:1" />
    </linearGradient>
    <linearGradient id="cb2" x1="100%" y1="0%" x2="0%" y2="100%">
      <stop offset="0%" style="stop-color:#F59E0B;stop-opacity:0.35" />
      <stop offset="100%" style="stop-color:#EF4444;stop-opacity:0.35" />
    </linearGradient>
  </defs>
  <!-- Background -->
  <circle cx="200" cy="195" r="180" fill="#1C1412" />
  <!-- Left curly brace { -->
  <path d="M 130 80 Q 110 80 110 110 L 110 170 Q 110 195 85 195 Q 110 195 110 220 L 110 280 Q 110 310 130 310" 
        fill="none" stroke="url(#cb1)" stroke-width="8" stroke-linecap="round" />
  <!-- Right curly brace } (mirrored) -->
  <path d="M 270 80 Q 290 80 290 110 L 290 170 Q 290 195 315 195 Q 290 195 290 220 L 290 280 Q 290 310 270 310" 
        fill="none" stroke="url(#cb2)" stroke-width="8" stroke-linecap="round" />
  <!-- Mirror divider -->
  <line x1="200" y1="70" x2="200" y2="320" stroke="#F59E0B" stroke-width="1.5" opacity="0.3" stroke-dasharray="6,4" />
  <!-- Code lines left side -->
  <line x1="145" y1="140" x2="190" y2="140" stroke="#F59E0B" stroke-width="4" stroke-linecap="round" opacity="0.8" />
  <line x1="155" y1="165" x2="195" y2="165" stroke="#FB923C" stroke-width="4" stroke-linecap="round" opacity="0.7" />
  <line x1="145" y1="195" x2="185" y2="195" stroke="#F97316" stroke-width="4" stroke-linecap="round" opacity="0.9" />
  <line x1="155" y1="225" x2="195" y2="225" stroke="#FB923C" stroke-width="4" stroke-linecap="round" opacity="0.7" />
  <line x1="145" y1="250" x2="190" y2="250" stroke="#F59E0B" stroke-width="4" stroke-linecap="round" opacity="0.8" />
  <!-- Code lines right side (mirrored, faded) -->
  <line x1="210" y1="140" x2="255" y2="140" stroke="#F59E0B" stroke-width="4" stroke-linecap="round" opacity="0.25" />
  <line x1="205" y1="165" x2="245" y2="165" stroke="#FB923C" stroke-width="4" stroke-linecap="round" opacity="0.2" />
  <line x1="215" y1="195" x2="255" y2="195" stroke="#F97316" stroke-width="4" stroke-linecap="round" opacity="0.3" />
  <line x1="205" y1="225" x2="245" y2="225" stroke="#FB923C" stroke-width="4" stroke-linecap="round" opacity="0.2" />
  <line x1="210" y1="250" x2="255" y2="250" stroke="#F59E0B" stroke-width="4" stroke-linecap="round" opacity="0.25" />
  <!-- Text -->
  <text x="200" y="390" text-anchor="middle" font-family="'Fira Code', 'Courier New', monospace" font-size="26" font-weight="600" fill="#F59E0B" letter-spacing="5">MIROIR</text>
</svg>
